# xmcd
# 
# Track frame offsets:
#     150
#     26960
#     65041
#     87426
# 
# Disc length: 1525
# 
# Revision: 0
# Processed by: cddbd v1.5.2PL0 Copyright (c) Steve Scherf et al.
# Submitted via: fre:ac v1.0.17
# 
DISCID=3505f304
DTITLE=五十一 - 3.11 追憶、東日本大震災
DYEAR=2013
DGENRE=Blues
TTITLE0=Sunrise Sunset 3.11
TTITLE1=Route 45
TTITLE2=戻ろう
TTITLE3=故郷よ
EXTD=
EXTT0=
EXTT1=
EXTT2=
EXTT3=
PLAYORDER=
